<?xml version="1.0" standalone="no"?>
<!DOCTYPE svg PUBLIC "-//W3C//DTD SVG 20010904//EN"
 "http://www.w3.org/TR/2001/REC-SVG-20010904/DTD/svg10.dtd">
<svg version="1.0" xmlns="http://www.w3.org/2000/svg"
 width="1000.000000pt" height="1000.000000pt" viewBox="0 0 1000.000000 1000.000000"
 preserveAspectRatio="xMidYMid meet">

<g transform="translate(0.000000,1000.000000) scale(0.100000,-0.100000)"
fill="#000000" stroke="none">
<path d="M4805 9053 c-389 -25 -872 -144 -1239 -306 -1139 -504 -1976 -1559
-2200 -2777 -98 -534 -79 -1106 54 -1632 31 -121 116 -377 165 -499 98 -239
265 -542 417 -754 95 -133 135 -182 142 -174 3 3 -34 59 -83 125 -404 546
-651 1191 -722 1889 -17 170 -15 587 5 765 105 952 580 1843 1313 2462 596
503 1275 790 2066 874 193 20 639 15 822 -11 1162 -161 2144 -806 2747 -1805
270 -447 428 -905 504 -1460 21 -159 30 -583 15 -762 -97 -1168 -704 -2200
-1671 -2843 -497 -330 -1036 -528 -1640 -602 -200 -24 -671 -24 -847 0 -288
41 -604 113 -817 187 -65 22 -76 24 -76 12 0 -10 220 -80 382 -122 491 -125
997 -152 1488 -80 374 55 721 162 1065 329 282 137 503 275 735 459 134 106
467 443 585 592 713 895 979 2041 739 3183 -113 536 -380 1091 -740 1538 -105
131 -289 328 -415 444 -583 540 -1413 902 -2213 965 -117 9 -458 11 -581 3z"/>
<path d="M4815 8844 c-103 -9 -354 -46 -470 -70 -294 -62 -547 -150 -830 -289
-577 -283 -1024 -676 -1394 -1225 -315 -466 -512 -999 -583 -1580 -20 -163
-17 -651 5 -825 73 -564 264 -1085 570 -1549 90 -136 183 -256 199 -256 12 0
12 0 -92 137 -147 193 -323 514 -428 779 -182 457 -261 897 -249 1399 13 544
124 998 362 1480 472 954 1317 1635 2340 1885 447 109 885 130 1350 64 492
-69 1035 -282 1460 -571 322 -220 660 -548 881 -858 489 -683 727 -1521 664
-2336 -58 -738 -332 -1429 -789 -1989 -106 -130 -326 -356 -446 -460 -407
-349 -907 -609 -1425 -740 -461 -117 -983 -136 -1465 -54 -124 21 -281 58
-402 94 -110 32 -133 36 -117 20 14 -14 212 -72 354 -103 753 -167 1534 -86
2230 232 544 248 1009 626 1377 1119 582 777 822 1763 662 2720 -98 587 -341
1138 -715 1622 -50 65 -177 203 -294 320 -292 293 -531 469 -875 646 -376 194
-760 313 -1190 370 -106 14 -584 26 -690 18z"/>
<path d="M3939 6423 c-13 -16 -12 -17 4 -4 9 7 17 15 17 17 0 8 -8 3 -21 -13z"/>
<path d="M3889 6383 c-13 -16 -12 -17 4 -4 9 7 17 15 17 17 0 8 -8 3 -21 -13z"/>
<path d="M3815 6328 c-27 -22 -214 -169 -414 -327 -210 -165 -374 -301 -388
-322 -68 -103 -22 -259 92 -310 56 -26 108 -24 254 10 287 67 962 213 966 209
12 -12 -124 -420 -230 -688 -298 -753 -655 -1359 -1122 -1905 -275 -323 -582
-597 -948 -847 -382 -261 -850 -470 -1248 -558 -31 -7 -56 -15 -54 -17 7 -6
107 -22 242 -38 164 -19 531 -22 705 -5 834 80 1659 405 2405 948 414 301 845
726 1154 1137 172 228 405 590 393 609 -3 5 -9 -1 -14 -13 -5 -14 -14 -21 -22
-18 -10 4 -13 0 -11 -14 3 -15 0 -19 -10 -15 -8 3 -15 1 -15 -3 0 -5 -7 -12
-16 -15 -12 -4 -15 -2 -11 9 7 16 -8 29 -23 20 -6 -4 -7 -13 -1 -23 7 -14 5
-17 -14 -17 -14 0 -21 5 -18 13 4 8 -3 11 -18 10 -16 -2 -27 4 -34 20 -5 12
-13 22 -17 22 -5 0 -8 9 -8 20 0 11 -5 20 -11 20 -5 0 -7 -4 -4 -10 3 -6 -4
-10 -17 -10 -19 0 -20 2 -8 11 11 8 7 9 -17 4 -20 -4 -34 -2 -39 6 -5 9 -2 10
11 5 11 -4 22 -2 27 6 13 21 9 31 -7 18 -13 -10 -15 -9 -15 9 0 16 -6 20 -22
18 -15 -1 -26 5 -33 21 -5 12 -13 22 -17 22 -4 0 -23 14 -41 30 -19 17 -40 30
-47 30 -17 0 -45 30 -28 30 7 0 4 6 -7 12 -11 6 -24 17 -28 25 -4 7 -15 13
-22 13 -9 0 -15 9 -15 21 0 18 -4 20 -32 14 -18 -3 -28 -3 -22 2 13 9 4 37
-12 40 -7 1 -10 -6 -7 -17 4 -14 0 -19 -15 -17 -13 1 -18 6 -14 16 4 10 1 12
-9 7 -11 -6 -10 -4 1 6 8 7 17 22 18 33 2 11 7 25 12 30 33 42 350 700 350
727 0 3 -7 5 -15 5 -8 0 -15 -9 -15 -19 0 -10 -5 -18 -10 -18 -6 0 -9 3 -9 8
5 27 -2 52 -13 46 -8 -5 -9 -2 -5 9 3 9 2 19 -4 22 -5 4 -8 1 -7 -7 2 -7 -3
-12 -11 -10 -12 3 -12 0 -1 -12 7 -9 9 -16 4 -16 -5 0 -2 -5 6 -10 10 -6 11
-10 3 -10 -7 0 -23 16 -35 35 -13 19 -31 35 -40 35 -10 0 -18 6 -18 14 0 7 -8
20 -17 27 -17 13 -17 13 -3 -6 14 -18 14 -19 -2 -7 -10 8 -17 17 -16 20 2 22
-4 32 -20 32 -9 0 -22 9 -27 20 -6 10 -23 42 -38 71 -16 28 -25 54 -22 57 9 9
25 -20 18 -32 -4 -5 -1 -6 7 -1 10 6 12 4 7 -8 -7 -19 8 -23 18 -6 4 6 0 16
-10 22 -9 7 -17 19 -19 27 -2 8 -6 23 -11 33 -4 9 -5 26 -2 37 3 11 1 18 -3
15 -5 -3 -17 8 -26 25 -10 16 -22 30 -26 30 -14 0 -9 -28 8 -45 9 -9 13 -19
10 -23 -4 -3 -11 -1 -15 6 -4 7 -16 10 -27 6 -14 -4 -15 -3 -6 4 11 7 9 13
-10 28 -13 11 -32 31 -42 46 -10 15 -22 26 -26 23 -5 -3 -17 5 -27 18 -26 33
-44 43 -37 20 5 -17 5 -17 -6 -1 -6 10 -21 23 -33 30 -20 10 -21 10 -8 -6 19
-23 5 -33 -17 -13 -10 10 -23 17 -29 17 -6 0 -18 10 -27 23 -9 12 -14 16 -11
10 9 -19 -40 -16 -56 3 -10 13 -10 17 2 25 12 7 11 9 -3 9 -9 0 -19 -6 -21
-12 -3 -8 -6 -5 -6 5 -1 13 -6 17 -20 12 -13 -4 -27 2 -40 16 -12 13 -21 18
-21 11 0 -6 5 -14 10 -17 17 -10 11 -21 -12 -22 -16 -2 -19 0 -10 6 11 7 11 9
-1 14 -8 3 -18 3 -21 0 -10 -10 -7 -43 5 -43 5 0 7 -4 4 -10 -3 -5 1 -10 10
-10 9 0 13 -4 10 -10 -11 -18 -26 -10 -36 19 -6 18 -20 32 -35 35 -14 4 -23
10 -20 15 3 4 -5 6 -18 4 -20 -4 -25 0 -28 18 -2 18 -8 23 -25 21 -13 -2 -23
2 -23 8 0 6 -11 15 -25 20 -14 5 -25 14 -25 20 0 5 -9 10 -20 10 -11 0 -20 7
-20 15 0 20 -50 67 -66 61 -8 -3 -11 0 -8 9 3 8 0 20 -7 28 -12 12 -15 12 -26
-2 -11 -14 -12 -13 -10 8 2 29 -41 59 -55 38 -5 -8 -8 -7 -8 5 0 9 6 19 13 22
6 3 -1 3 -18 -1 -16 -3 -27 -2 -23 2 9 10 -13 32 -32 32 -12 0 -15 -9 -12 -35
4 -33 4 -34 -19 -21 -13 7 -32 23 -42 36 -13 16 -23 21 -31 15 -6 -5 -21 -8
-34 -6 -12 2 -30 -4 -40 -14 -10 -9 -25 -18 -35 -18 -13 -1 -14 2 -6 17 9 17
28 24 52 20 5 -1 6 3 3 8 -4 5 -1 16 6 23 74 81 75 85 3 26z m205 -138 c0 -5
-4 -10 -10 -10 -5 0 -10 5 -10 10 0 6 5 10 10 10 6 0 10 -4 10 -10z m540 -254
c0 -3 -4 -8 -10 -11 -5 -3 -10 -1 -10 4 0 6 5 11 10 11 6 0 10 -2 10 -4z m435
-285 c3 -5 1 -12 -5 -16 -5 -3 -10 1 -10 9 0 18 6 21 15 7z m10 -1161 c3 -5 1
-10 -4 -10 -6 0 -11 5 -11 10 0 6 2 10 4 10 3 0 8 -4 11 -10z m76 -73 c-10 -9
-11 -8 -5 6 3 10 9 15 12 12 3 -3 0 -11 -7 -18z m93 -75 c6 -14 -3 -10 -46 22
-16 11 -28 23 -28 27 0 12 68 -34 74 -49z m76 -40 c0 -4 -9 -8 -20 -9 -16 -1
-17 1 -7 12 12 13 27 11 27 -3z m30 -42 c-18 -12 -30 -13 -30 -2 0 4 10 9 22
9 18 2 20 0 8 -7z"/>
<path d="M3947 6299 c7 -7 15 -10 18 -7 3 3 -2 9 -12 12 -14 6 -15 5 -6 -5z"/>
<path d="M3830 6282 c0 -5 7 -9 15 -9 8 0 12 4 9 9 -3 4 -9 8 -15 8 -5 0 -9
-4 -9 -8z"/>
<path d="M4430 5970 c0 -5 5 -10 10 -10 6 0 10 5 10 10 0 6 -4 10 -10 10 -5 0
-10 -4 -10 -10z"/>
<path d="M4681 5934 c0 -11 3 -14 6 -6 3 7 2 16 -1 19 -3 4 -6 -2 -5 -13z"/>
<path d="M4705 5909 c-4 -6 -5 -12 -2 -15 2 -3 7 2 10 11 7 17 1 20 -8 4z"/>
<path d="M5115 5490 c3 -5 13 -10 21 -10 8 0 12 5 9 10 -3 6 -13 10 -21 10 -8
0 -12 -4 -9 -10z"/>
<path d="M5181 5444 c0 -11 3 -14 6 -6 3 7 2 16 -1 19 -3 4 -6 -2 -5 -13z"/>
<path d="M5270 4310 c0 -5 5 -10 10 -10 6 0 10 5 10 10 0 6 -4 10 -10 10 -5 0
-10 -4 -10 -10z"/>
<path d="M5430 4170 c0 -5 5 -10 10 -10 6 0 10 5 10 10 0 6 -4 10 -10 10 -5 0
-10 -4 -10 -10z"/>
</g>
</svg>
